{"title":"Hum Tum Dushman Dushman (2015) - Untouched WEBHD 360p x264 AVC 2","uid":12062092,"size":1222405448,"categoryP":"video","categoryS":"hd___movies","magnet":"?xt=urn:btih:ae61bd3e9c8c65dbd5e497c1f4002cb2847fd6f2&amp;dn=Hum+Tum+Dushman+Dushman+%282015%29+-+Untouched+WEBHD+360p+x264+AVC+2&amp;tr=udp%3A%2F%2Ftracker.openbittorrent.com%3A80&amp;tr=udp%3A%2F%2Fopen.demonii.com%3A1337&amp;tr=udp%3A%2F%2Ftracker.coppersurfer.tk%3A6969&amp;tr=udp%3A%2F%2Fexodus.desync.com%3A6969","seeders":0,"leechers":0,"uploader":"Urmit","files":10,"time":1435294402,"description":"[center][img]http://i.imgur.com/ZbGI2j7.png[/img]\n\n[img]http://i.imgur.com/62jbyUV.jpg[/img]\n\n[size=6][color=blue][b]um Tum Dushman Dushman (2015) - Untouched WEBHD 360p x264 AVC 2CH - [ M2Tv ][/b][/color][/size]\n\n[img]http://i.imgur.com/tWjvQAx.png[/img]\n\n\n\n[code][* Year ].............: [ (2015)\n[* IMDB Link ]........: [ Not Found\n[* Gener ]............: [ Action\n[* Cast ].............: [ Mukesh Rishi, Mashaal Durrani, Sohini Paul\n\n[* Source ]...........: [ -* M2Tv (Thanks) *-\n[* Ripper ]...........: [ -* TuHiN *-\n[* Language ].........: [ Hindi\n\nFormat                                   : MPEG-TS\nFile size                                : 1.14 GiB\nDuration                                 : 1h 54mn\nOverall bit rate mode                    : Variable\nOverall bit rate                         : 1 426 Kbps\n\n[ * Video ]\n\nID                                       : 256 (0x100)\nMenu ID                                  : 1 (0x1)\nFormat                                   : AVC\nFormat/Info                              : Advanced Video Codec\nFormat profile                           : &lt;a class=&quot;__cf_email__&quot; href=&quot;/cdn-cgi/l/email-protection&quot; data-cfemail=&quot;c38baaa4ab838ff0edf3&quot;&gt;[email&amp;#160;protected]&lt;/a&gt;&lt;script data-cfhash='f9e31' type=&quot;text/javascript&quot;&gt;\n/* &lt;![CDATA[ */!function(){try{var t=&quot;currentScript&quot;in document?document.currentScript:function(){for(var t=document.getElementsByTagName(&quot;script&quot;),e=t.length;e--;)if(t[e].getAttribute(&quot;data-cfhash&quot;))return t[e]}();if(t&amp;&amp;t.previousSibling){var e,r,n,i,c=t.previousSibling,a=c.getAttribute(&quot;data-cfemail&quot;);if(a){for(e=&quot;&quot;,r=parseInt(a.substr(0,2),16),n=2;a.length-n;n+=2)i=parseInt(a.substr(n,2),16)^r,e+=String.fromCharCode(i);e=document.createTextNode(e),c.parentNode.replaceChild(e,c)}t.parentNode.removeChild(t);}}catch(u){}}()/* ]]&gt; */&lt;/script&gt;\nFormat settings, CABAC                   : Yes\nFormat settings, ReFrames                : 4 frames\nFormat settings, GOP                     : M=4, N=30\nCodec ID                                 : 27\nDuration                                 : 1h 54mn\nBit rate                                 : 1 307 Kbps\nNominal bit rate                         : 1 228 Kbps\nWidth                                    : 640 pixels\nHeight                                   : 360 pixels\nDisplay aspect ratio                     : 16:9\nFrame rate mode                          : Variable\nColor space                              : YUV\nChroma subsampling                       : 4:2:0\nBit depth                                : 8 bits\nScan type                                : Progressive\nStream size                              : 1.04 GiB (92%)\nWriting library                          : x264 core 133 r2 a3ac64b\nEncoding settings                        : cabac=1 / ref=3 / deblock=1:0:0 / analyse=0x3:0x113 / me=hex / subme=7 / psy=1 / psy_rd=1.00:0.00 / mixed_ref=1 / me_range=16 / chroma_me=1 / trellis=1 / 8x8dct=1 / cqm=0 / deadzone=21,11 / fast_pskip=1 / chroma_qp_offset=-2 / threads=12 / lookahead_threads=2 / sliced_threads=0 / nr=0 / decimate=1 / interlaced=0 / bluray_compat=0 / constrained_intra=0 / bframes=3 / b_pyramid=2 / b_adapt=1 / b_bias=0 / direct=1 / weightb=1 / open_gop=0 / weightp=2 / keyint=30 / keyint_min=3 / scenecut=40 / intra_refresh=0 / rc_lookahead=30 / rc=abr / mbtree=1 / bitrate=1228 / ratetol=1.0 / qcomp=0.60 / qpmin=0 / qpmax=69 / qpstep=4 / ip_ratio=1.40 / aq=1:1.00\n\n\n[ * Audio ]\n\nID                                       : 257 (0x101)\nMenu ID                                  : 1 (0x1)\nFormat                                   : AAC\nFormat/Info                              : Advanced Audio Codec\nFormat version                           : Version 4\nFormat profile                           : LC\nMuxing mode                              : ADTS\nCodec ID                                 : 15\nDuration                                 : 1h 54mn\nBit rate mode                            : Variable\nBit rate                                 : 48.0 Kbps\nChannel(s)                               : 2 channels\nChannel positions                        : Front: L R\nSampling rate                            : 48.0 KHz\nCompression mode                         : Lossy\nDelay relative to video                  : -42ms\nStream size                              : 39.2 MiB (3%)\n\n\nNote: &quot;JPEG&quot; less quality, don't judge by this.[/code]\n[li]\n\n[img]http://t1.someimage.com/DfxUhPg.jpg[/img]\n[img]http://t1.someimage.com/fGIVSRO.jpg[/img]\n[img]http://t1.someimage.com/iRMtjp3.jpg[/img]\n[img]http://t1.someimage.com/fUkM8Ok.jpg[/img]\n\n\n[size=5][u][i]\n[b]Note :[/b]\n[/i][/u][/size]\n\n[color=blue][size=6][i][b]Wherever you share our stuffs, Always Give Proper Credits To &quot;Team M2Tv&quot;, Enjoy.[/b][/i][/size][/color][/li]\n[/center]","torrent":{"xt":"urn:btih:ae61bd3e9c8c65dbd5e497c1f4002cb2847fd6f2","amp;dn":"Hum+Tum+Dushman+Dushman+%282015%29+-+Untouched+WEBHD+360p+x264+AVC+2","amp;tr":["udp%3A%2F%2Ftracker.openbittorrent.com%3A80","udp%3A%2F%2Fopen.demonii.com%3A1337","udp%3A%2F%2Ftracker.coppersurfer.tk%3A6969","udp%3A%2F%2Fexodus.desync.com%3A6969"],"infoHash":"ae61bd3e9c8c65dbd5e497c1f4002cb2847fd6f2","infoHashBuffer":{"type":"Buffer","data":[174,97,189,62,156,140,101,219,213,228,151,193,244,0,44,178,132,127,214,242]},"announce":[],"urlList":[]}}